<svg id="añadir" xmlns="http://www.w3.org/2000/svg" width="24" height="24" viewBox="0 0 24 24">
  <rect id="Rectángulo_127" data-name="Rectángulo 127" width="24" height="24" fill="none"/>
  <path id="añadir-2" data-name="añadir" d="M9.915,1.25H9.887c-1.382,0-2.459,0-3.322.07a5.824,5.824,0,0,0-2.229.546,5.651,5.651,0,0,0-2.47,2.47A5.824,5.824,0,0,0,1.32,6.565c-.07.863-.07,1.94-.07,3.322v.727c0,1.382,0,2.459.07,3.322a5.824,5.824,0,0,0,.546,2.229,5.651,5.651,0,0,0,2.47,2.47,5.824,5.824,0,0,0,2.229.546c.863.07,1.94.07,3.322.07h.727c1.382,0,2.459,0,3.322-.07a5.824,5.824,0,0,0,2.229-.546,5.651,5.651,0,0,0,2.47-2.47,5.825,5.825,0,0,0,.546-2.229c.07-.863.07-1.94.07-3.322V9.887c0-1.382,0-2.459-.07-3.322a5.824,5.824,0,0,0-.546-2.229,5.651,5.651,0,0,0-2.47-2.47,5.824,5.824,0,0,0-2.229-.546c-.863-.07-1.94-.07-3.322-.07h-.7ZM4.906,2.985a4.608,4.608,0,0,1,1.761-.413c.806-.065,1.831-.066,3.248-.066h.67c1.417,0,2.442,0,3.248.067a4.59,4.59,0,0,1,1.761.412,4.4,4.4,0,0,1,1.921,1.921,4.608,4.608,0,0,1,.413,1.761c.065.806.066,1.831.066,3.248v.67c0,1.417,0,2.442-.067,3.248a4.59,4.59,0,0,1-.412,1.761,4.4,4.4,0,0,1-1.921,1.921,4.608,4.608,0,0,1-1.761.413c-.806.065-1.832.066-3.248.066h-.67c-1.417,0-2.442,0-3.248-.067a4.59,4.59,0,0,1-1.761-.412,4.4,4.4,0,0,1-1.921-1.921,4.608,4.608,0,0,1-.413-1.761c-.065-.806-.066-1.832-.066-3.248v-.67c0-1.417,0-2.442.067-3.248a4.59,4.59,0,0,1,.412-1.761A4.4,4.4,0,0,1,4.906,2.985ZM10.878,6.9a.628.628,0,1,0-1.256,0V9.622H6.9a.628.628,0,0,0,0,1.256H9.622V13.6a.628.628,0,1,0,1.256,0V10.878H13.6a.628.628,0,1,0,0-1.256H10.878Z" transform="translate(1.75 1.75)" fill="#344563" fill-rule="evenodd"/>
</svg>
