<svg id="cliente" xmlns="http://www.w3.org/2000/svg" width="24" height="24" viewBox="0 0 24 24">
  <rect id="Rectángulo_17436" data-name="Rectángulo 17436" width="24" height="24" fill="none" opacity="0.24"/>
  <path id="user" d="M7.855,5.227a2.721,2.721,0,1,1,2.721,2.721A2.721,2.721,0,0,1,7.855,5.227ZM10.576,1.25a3.977,3.977,0,1,0,3.977,3.977A3.977,3.977,0,0,0,10.576,1.25ZM7.9,11.3A4.647,4.647,0,0,0,3.25,15.943,3.307,3.307,0,0,0,6.557,19.25h8.037A3.307,3.307,0,0,0,17.9,15.943,4.647,4.647,0,0,0,13.255,11.3H7.9ZM4.506,15.943A3.391,3.391,0,0,1,7.9,12.552h5.358a3.391,3.391,0,0,1,3.391,3.391,2.051,2.051,0,0,1-2.051,2.051H6.557A2.051,2.051,0,0,1,4.506,15.943Z" transform="translate(1.75 1.75)" fill-rule="evenodd"/>
</svg>
