<svg id="cupones" xmlns="http://www.w3.org/2000/svg" width="24" height="24" viewBox="0 0 24 24">
  <g id="coupon" transform="translate(1.125 2.064)">
    <g id="Grupo_46490" data-name="Grupo 46490" transform="translate(-0.004 -0.001)">
      <g id="Grupo_46489" data-name="Grupo 46489">
        <path id="Uni칩n_16" data-name="Uni칩n 16" d="M11606.517,6559.183l-1.5-2.471a1.054,1.054,0,0,1,0-1.042,1.729,1.729,0,0,0-1.511-2.517,1.061,1.061,0,0,1-.939-.525l-1.5-2.488a1.257,1.257,0,0,1,.423-1.727l13.817-8.3a1.252,1.252,0,0,1,1.718.432l5.455,9.069a1.263,1.263,0,0,1-.47,1.718l-13.773,8.308a1.255,1.255,0,0,1-1.716-.458Zm-4.422-9.754a.071.071,0,0,0,0,.093l1.473,2.45a2.91,2.91,0,0,1,2.479,4.177l1.474,2.45a.063.063,0,0,0,.093,0l2.666-1.6a.577.577,0,0,1,.135-.432.568.568,0,0,1,.4-.207.583.583,0,0,1,.373.093l10.232-6.158a.057.057,0,0,0,.021-.046.058.058,0,0,0-.021-.047l-5.416-9.042a.073.073,0,0,0-.094,0l-10.241,6.123a.594.594,0,0,1-.292.574.6.6,0,0,1-.643-.017Z" transform="translate(-11600.88 -6539.937)" fill="#ff991f"/>
      </g>
    </g>
    <path id="Trazado_30073" data-name="Trazado 30073" d="M21.8,14.334h0v-.075h0a.582.582,0,0,0-.6-.479.573.573,0,0,0-.535.554v.056l.31,4.159-.066.075-8.946.789H11.9a.61.61,0,0,0-.526.638.6.6,0,0,0,.6.554h0l8.993-.817a1.249,1.249,0,0,0,1.145-1.352Z" transform="translate(-1.166 -1.314)" fill="#ff991f"/>
    <g id="Grupo_46494" data-name="Grupo 46494" transform="translate(4.629 8.519)">
      <g id="Grupo_46493" data-name="Grupo 46493">
        <path id="Trazado_30068" data-name="Trazado 30068" d="M5.881,9.908a.357.357,0,0,0-.066.488l.422.7a.319.319,0,0,0,.4.207.329.329,0,0,0,.207-.375.535.535,0,0,0-.075-.122l-.422-.7a.347.347,0,0,0-.469-.2Z" transform="translate(-5.451 -9.593)" fill="#ff991f"/>
        <path id="Trazado_30068_-_Contorno" data-name="Trazado 30068 - Contorno" d="M5.721,9.645a.629.629,0,0,1,.845.263L7,10.622a.6.6,0,1,1-.939.732.432.432,0,0,1-.094-.122l-.432-.713a.629.629,0,0,1,.188-.873Zm.817,1.361a.16.16,0,0,0,0-.094L6.115,10.2a.056.056,0,0,0,0-.066.066.066,0,0,0-.075,0,.047.047,0,0,0,0,.066h0l.422.713a.253.253,0,0,0,.075.094Z" transform="translate(-5.431 -9.575)" fill="#ff991f"/>
      </g>
    </g>
    <g id="Grupo_46503" data-name="Grupo 46503" transform="translate(6.225 11.149)">
      <g id="Grupo_46493-2" data-name="Grupo 46493-2">
        <path id="Trazado_30068-2" data-name="Trazado 30068-2" d="M7.571,12.707a.338.338,0,0,0-.066.488l.46.723a.319.319,0,0,0,.6-.2.207.207,0,0,0-.075-.122l-.422-.713a.357.357,0,0,0-.5-.178Z" transform="translate(-7.149 -12.394)" fill="#ff991f"/>
        <path id="Trazado_30068_-_Contorno-2" data-name="Trazado 30068 - Contorno-2" d="M7.4,12.445a.638.638,0,0,1,.854.272l.422.7a.6.6,0,0,1-.939.732.535.535,0,0,1-.075-.122l-.422-.7A.638.638,0,0,1,7.4,12.445Zm.817,1.361a.113.113,0,0,0,0-.094l-.432-.7a.05.05,0,0,0-.066-.075V13h0l.432.7a.113.113,0,0,0,.066.1Z" transform="translate(-7.131 -12.376)" fill="#ff991f"/>
      </g>
    </g>
    <g id="Grupo_46504" data-name="Grupo 46504" transform="translate(7.805 13.778)">
      <g id="Grupo_46493-3" data-name="Grupo 46493-3">
        <path id="Trazado_30068-3" data-name="Trazado 30068-3" d="M9.251,15.508A.357.357,0,0,0,9.186,16l.422.713a.321.321,0,0,0,.61-.2.535.535,0,0,0-.075-.122l-.432-.7a.347.347,0,0,0-.46-.178Z" transform="translate(-8.833 -15.195)" fill="#ff991f"/>
        <path id="Trazado_30068_-_Contorno-3" data-name="Trazado 30068 - Contorno-3" d="M9.092,15.246a.629.629,0,0,1,.845.272l.432.7a.6.6,0,0,1-.113.835.591.591,0,0,1-.835-.1.507.507,0,0,1-.066-.122l-.432-.7a.638.638,0,0,1,.169-.882Zm.835,1.371a.188.188,0,0,0,0-.1l-.422-.7a.047.047,0,0,0,0-.066H9.439a.056.056,0,0,0,0,.066h0l.422.7a.188.188,0,0,0,.066.1Z" transform="translate(-8.814 -15.177)" fill="#ff991f"/>
      </g>
    </g>
    <g id="Grupo_46502" data-name="Grupo 46502" transform="translate(8.792 4.835)">
      <g id="Grupo_46501" data-name="Grupo 46501">
        <path id="Trazado_30072" data-name="Trazado 30072" d="M17.024,6.495a.817.817,0,0,0-.939-.1l-1.624.826-1.427-1.1a.807.807,0,0,0-1.126.15.817.817,0,0,0-.15.62l.291,1.8-1.5,1.061a.8.8,0,0,0-.207,1.117.864.864,0,0,0,.544.338l1.812.282.526,1.746a.807.807,0,0,0,1.493.131l.826-1.633h1.831a.807.807,0,0,0,.817-.789.789.789,0,0,0-.235-.582L16.658,9.1l.6-1.727a.826.826,0,0,0-.235-.873Zm-.357.667L16,9.039a.31.31,0,0,0,.075.319l1.446,1.464a.2.2,0,0,1,0,.272.225.225,0,0,1-.131.047H15.363a.319.319,0,0,0-.282.169l-.939,1.812a.2.2,0,0,1-.253.075.207.207,0,0,1-.094-.1l-.582-1.943a.319.319,0,0,0-.253-.216l-2.009-.347a.188.188,0,0,1-.15-.216.207.207,0,0,1,.075-.122L12.556,9.1a.319.319,0,0,0,.131-.282L12.359,6.8a.207.207,0,0,1,.16-.216.225.225,0,0,1,.141,0l1.605,1.3a.3.3,0,0,0,.329,0l1.8-.939a.188.188,0,0,1,.253.084.244.244,0,0,1,0,.141Z" transform="translate(-9.886 -5.669)" fill="#ff991f"/>
        <path id="Trazado_30072_-_Contorno" data-name="Trazado 30072 - Contorno" d="M11.973,5.81a1.061,1.061,0,0,1,1.211.066l1.324,1.042,1.474-.751A1.089,1.089,0,0,1,17.5,7.443L16.957,9l1.173,1.164a1.089,1.089,0,0,1,0,1.54,1.07,1.07,0,0,1-.789.319H15.69l-.751,1.464a1.08,1.08,0,0,1-1.455.479,1.1,1.1,0,0,1-.554-.657l-.479-1.577-1.633-.263a1.08,1.08,0,0,1-.939-1.239,1.051,1.051,0,0,1,.451-.723l1.352-.939-.225-1.652a1.089,1.089,0,0,1,.516-1.108ZM17.6,11.386a.516.516,0,0,0,.178-.713.451.451,0,0,0-.084-.1L16.31,9.152l.657-1.877a.526.526,0,0,0-.732-.638l-1.784.939L12.808,6.326a.516.516,0,0,0-.732.1.535.535,0,0,0-.1.394l.357,1.971L10.677,9.949a.516.516,0,0,0-.122.723.479.479,0,0,0,.347.216l1.981.31.582,1.877a.526.526,0,0,0,.648.347.5.5,0,0,0,.319-.263l.939-1.793H17.38a.488.488,0,0,0,.282-.075ZM12.292,6.345a.451.451,0,0,1,.526,0l1.605,1.22h0l1.8-.939a.46.46,0,0,1,.629.207.469.469,0,0,1,0,.357l-.667,1.877,1.436,1.427a.46.46,0,0,1,.1.516.488.488,0,0,1-.188.225.6.6,0,0,1-.253.066H15.258l-.939,1.8a.451.451,0,0,1-.46.263.469.469,0,0,1-.4-.338l-.591-1.934h0l-1.934-.244a.479.479,0,0,1-.385-.544.46.46,0,0,1,.188-.3l1.662-1.164-.329-2.018a.469.469,0,0,1,.225-.488Zm4.008.939L14.685,8.1a.629.629,0,0,1-.629-.056l-1.4-1.08.291,1.765A.591.591,0,0,1,12.7,9.3l-1.464,1.023L13,10.607a.573.573,0,0,1,.479.413l.516,1.7.807-1.586a.591.591,0,0,1,.535-.329h1.784l-1.258-1.22a.591.591,0,0,1-.141-.61Z" transform="translate(-9.866 -5.651)" fill="#ff991f"/>
      </g>
    </g>
  </g>
  <rect id="Rect치ngulo_17535" data-name="Rect치ngulo 17535" width="24" height="24" fill="none"/>
</svg>
