<svg id="Historias" xmlns="http://www.w3.org/2000/svg" width="24" height="24" viewBox="0 0 24 24">
  <rect id="Rectángulo_17791" data-name="Rectángulo 17791" width="24" height="24" fill="#97a0b0" opacity="0"/>
  <g id="story" transform="translate(2.996 3)">
    <path id="Trazado_30174" data-name="Trazado 30174" d="M159.583,2.637a9.01,9.01,0,0,0-9.718-1.99.621.621,0,1,0,.461,1.154h0a7.759,7.759,0,0,1,6.791,13.908.621.621,0,1,0,.621,1.076l0,0a9,9,0,0,0,1.838-14.145Z" transform="translate(-144.216)" fill="#97a0b0"/>
    <path id="Trazado_30175" data-name="Trazado 30175" d="M28.807,49.355a.621.621,0,0,0,.841-.251h0a7.837,7.837,0,0,1,2.275-2.6A.621.621,0,1,0,31.2,45.5l0,0a9.087,9.087,0,0,0-2.638,3.014.621.621,0,0,0,.252.842Z" transform="translate(-27.475 -43.783)" fill="#97a0b0"/>
    <path id="Trazado_30176" data-name="Trazado 30176" d="M1.541,192.275a7.824,7.824,0,0,1-.119-3.774.621.621,0,0,0-1.214-.263,9.066,9.066,0,0,0,.138,4.377.621.621,0,0,0,1.2-.34h0Z" transform="translate(0 -181.15)" fill="#97a0b0"/>
    <path id="Trazado_30177" data-name="Trazado 30177" d="M34.259,358.3a7.83,7.83,0,0,1-2.443-2.634.621.621,0,0,0-1.089.6l.008.014a9.079,9.079,0,0,0,2.832,3.054.621.621,0,0,0,.692-1.032Z" transform="translate(-29.568 -342.849)" fill="#97a0b0"/>
    <path id="Trazado_30178" data-name="Trazado 30178" d="M155.533,459.823a7.8,7.8,0,0,1-5.165-.218.621.621,0,1,0-.463,1.153,9.04,9.04,0,0,0,5.992.253.621.621,0,1,0-.364-1.188Z" transform="translate(-144.254 -443.403)" fill="#97a0b0"/>
    <path id="Trazado_30179" data-name="Trazado 30179" d="M122.446,117.585a.621.621,0,0,0-.621.621h0v3.624H118.2a.621.621,0,1,0,0,1.243h3.624V126.7a.621.621,0,1,0,1.243,0v-3.624h3.624a.621.621,0,0,0,0-1.243h-3.624v-3.624a.621.621,0,0,0-.621-.621Z" transform="translate(-113.442 -113.451)" fill="#97a0b0"/>
  </g>
</svg>
