<svg id="Holding" xmlns="http://www.w3.org/2000/svg" width="24" height="24" viewBox="0 0 24 24">
  <path id="Trazado_30416" data-name="Trazado 30416" d="M20.984,8.528a2.382,2.382,0,0,0-.159-.759,2.3,2.3,0,0,0-1.246-1.247,2.353,2.353,0,0,0-.759-.157c-.255-.017-.57-.017-.939-.017H15.927a3.978,3.978,0,0,0-7.855,0H6.119c-.373,0-.683,0-.938.017a2.376,2.376,0,0,0-.759.159A2.3,2.3,0,0,0,3.175,7.769a2.353,2.353,0,0,0-.157.759C3,8.783,3,9.093,3,9.466v.042c0,.373,0,.683.017.938a2.382,2.382,0,0,0,.159.759,2.3,2.3,0,0,0,.661.9v2.939c0,.914,0,1.639.048,2.223a4.1,4.1,0,0,0,.385,1.565,3.977,3.977,0,0,0,1.739,1.737,4.057,4.057,0,0,0,1.564.386C8.157,21,8.882,21,9.8,21h4.4c.914,0,1.639,0,2.223-.048a4.1,4.1,0,0,0,1.565-.385,3.975,3.975,0,0,0,1.737-1.738,4.084,4.084,0,0,0,.386-1.565c.048-.584.048-1.309.048-2.223V12.1a2.306,2.306,0,0,0,.661-.9,2.355,2.355,0,0,0,.159-.759C21,10.195,21,9.885,21,9.512V9.466C21,9.093,21,8.783,20.984,8.528ZM11.378,4.32A2.721,2.721,0,0,1,14.65,6.348H9.35A2.722,2.722,0,0,1,11.378,4.32Zm7.491,12.839a2.879,2.879,0,0,1-.253,1.1,2.722,2.722,0,0,1-1.189,1.189,2.879,2.879,0,0,1-1.1.253c-.526.044-1.2.044-2.148.044H9.826c-.948,0-1.621,0-2.148-.044a2.879,2.879,0,0,1-1.1-.253,2.722,2.722,0,0,1-1.184-1.187,2.879,2.879,0,0,1-.253-1.1c-.044-.526-.044-1.2-.044-2.148V12.6l.088.008c.255.017.565.017.938.017h1.9v.628h0a.628.628,0,0,0,1.256,0v-.628h5.444v.628a.628.628,0,0,0,1.256,0v-.628h1.9c.373,0,.683,0,.938-.018l.088-.007.008,2.408C18.913,15.959,18.912,16.632,18.869,17.159Zm.86-6.8a1.158,1.158,0,0,1-.065.364,1.044,1.044,0,0,1-.567.567,1.158,1.158,0,0,1-.364.065c-.207.014-.475.014-.873.014H15.977v-.626a.628.628,0,1,0-1.256,0v.628H9.279v-.628a.628.628,0,1,0-1.256,0v.628H6.14c-.4,0-.666,0-.873-.014a1.158,1.158,0,0,1-.364-.065,1.044,1.044,0,0,1-.567-.567,1.158,1.158,0,0,1-.065-.364q-.02-.436-.014-.873c0-.4,0-.666.014-.873a1.169,1.169,0,0,1,.064-.366A1.044,1.044,0,0,1,4.9,7.681a1.158,1.158,0,0,1,.364-.065Q5.7,7.6,6.139,7.6H17.86c.4,0,.666,0,.873.014a1.158,1.158,0,0,1,.364.065,1.044,1.044,0,0,1,.567.567,1.158,1.158,0,0,1,.065.364c.014.207.014.475.014.873s0,.668-.014.875Z" fill="#344563" fill-rule="evenodd"/>
  <rect id="Rectángulo_17458" data-name="Rectángulo 17458" width="24" height="24" fill="none"/>
</svg>
