<svg id="Logo" xmlns="http://www.w3.org/2000/svg" width="120" height="60" viewBox="0 0 120 60">
  <g id="Rectángulo_17789" data-name="Rectángulo 17789" fill="#fff" stroke="#707070" stroke-width="1" opacity="0">
    <rect width="120" height="60" stroke="none"/>
    <rect x="0.5" y="0.5" width="119" height="59" fill="none"/>
  </g>
  <g id="Grupo_46008" data-name="Grupo 46008" transform="translate(5 -5)">
    <path id="Trazado_30025" data-name="Trazado 30025" d="M84.773,80.988c.214,1.313-.327,3.291-1.892,5.6L74.231,99.66l-.456,9.111c-.139,3.425-1.42,5.145-4.368,5.628l-1.522.252c-2.841.461-4.743-.954-4.593-4.325l.439-9.058L53.066,85.479c-.348-.482,1.608-4.143,5.745-4.824,2.2-.359,3.693.8,5.21,3.468l4.872,8.323,8.725-15.253C77.7,77.043,84.039,76.507,84.773,80.988Z" transform="translate(-53.026 -54.967)" fill="#d5d5d5"/>
    <path id="Trazado_30026" data-name="Trazado 30026" d="M110.5,104.528c-1.42-8.672,2.851-17.847,11.314-19.236a8.809,8.809,0,0,1,8.811,3.36,7.1,7.1,0,0,1,2.144-3.7,7.782,7.782,0,0,1,3.939-1.672c1.94-.316,3.607.273,3.612.649l-.884,18.662c-.182,3.157.536,4.288,2.423,4.566.113.038-.214,2.953-4.791,3.7-2.626.434-4.507-.177-5.7-1.5a6.8,6.8,0,0,1-1.383-2.846,10.516,10.516,0,0,1-8.265,6.86C116.093,114.287,111.542,110.873,110.5,104.528Zm19.193-6.062.113-3.259c-1.072-1.876-2.589-2.975-5.006-2.578-3.784.622-5.547,4.69-4.909,8.575.418,2.578,2.331,4.047,4.7,3.655,2.889-.482,4.974-2.926,5.1-6.4Z" transform="translate(-79.57 -57.798)" fill="#d5d5d5"/>
    <path id="Trazado_30027" data-name="Trazado 30027" d="M173.588,110.4l1.452-31.975c0-.273,1.2-.9,2.782-1.158a5.148,5.148,0,0,1,5.22,1.9,6.208,6.208,0,0,1,.992,2.428,9.669,9.669,0,0,1,7.8-7.053c5.676-.933,10.66,2.46,11.791,9.347,1.356,8.307-2.476,17.194-10.569,18.517-3.752.611-6.882-.488-8.977-3.06l-.536,9.417c-.129,3.805-1.254,5.172-3.832,5.6l-1,.166C176.01,114.966,173.357,114.269,173.588,110.4Zm20.624-23.357c-.466-2.841-2.412-4.518-5.092-4.079a6.228,6.228,0,0,0-4.448,3.484l-.166,2.942c-.177,3.859,1.881,6.223,5.36,5.654,3.563-.578,4.957-4.25,4.346-8Z" transform="translate(-108.965 -53.712)" fill="#d5d5d5"/>
    <path id="Trazado_30028" data-name="Trazado 30028" d="M239.334,73.718l-2.1-14.117c-.858-3.907,1.3-6.2,5.086-6.823,5.36-.879,8.039,1.608,6.673,6.137l-3.4,14.471c-.659,2.214-1.217,3.114-2.792,3.371C240.647,77.127,239.939,76.43,239.334,73.718ZM237.19,86.27a7.478,7.478,0,0,1,.884-5.161c.7-.981,1.436-1.426,4.068-1.854,2.942-.482,4.422.3,4.8,2.61a7.463,7.463,0,0,1-.879,5.167c-.7.981-1.442,1.42-4.014,1.844-2.953.488-4.486-.284-4.867-2.6Z" transform="translate(-138.421 -43.603)" fill="#d5d5d5"/>
  </g>
  <g id="Grupo_46007" data-name="Grupo 46007" transform="translate(4 5)">
    <path id="Trazado_30025-2" data-name="Trazado 30025" d="M84.773,80.988c.214,1.313-.327,3.291-1.892,5.6L74.231,99.66l-.456,9.111c-.139,3.425-1.42,5.145-4.368,5.628l-1.522.252c-2.841.461-4.743-.954-4.593-4.325l.439-9.058L53.066,85.479c-.348-.482,1.608-4.143,5.745-4.824,2.2-.359,3.693.8,5.21,3.468l4.872,8.323,8.725-15.253C77.7,77.043,84.039,76.507,84.773,80.988Z" transform="translate(-53.026 -63.967)" fill="#ff991f"/>
    <path id="Trazado_30026-2" data-name="Trazado 30026" d="M110.5,104.528c-1.42-8.672,2.851-17.847,11.314-19.236a8.809,8.809,0,0,1,8.811,3.36,7.1,7.1,0,0,1,2.144-3.7,7.782,7.782,0,0,1,3.939-1.672c1.94-.316,3.607.273,3.612.649l-.884,18.662c-.182,3.157.536,4.288,2.423,4.566.113.038-.214,2.953-4.791,3.7-2.626.434-4.507-.177-5.7-1.5a6.8,6.8,0,0,1-1.383-2.846,10.516,10.516,0,0,1-8.265,6.86C116.093,114.287,111.542,110.873,110.5,104.528Zm19.193-6.062.113-3.259c-1.072-1.876-2.589-2.975-5.006-2.578-3.784.622-5.547,4.69-4.909,8.575.418,2.578,2.331,4.047,4.7,3.655,2.889-.482,4.974-2.926,5.1-6.4Z" transform="translate(-79.57 -66.798)" fill="#ff991f"/>
    <path id="Trazado_30027-2" data-name="Trazado 30027" d="M173.588,110.4l1.452-31.975c0-.273,1.2-.9,2.782-1.158a5.148,5.148,0,0,1,5.22,1.9,6.208,6.208,0,0,1,.992,2.428,9.669,9.669,0,0,1,7.8-7.053c5.676-.933,10.66,2.46,11.791,9.347,1.356,8.307-2.476,17.194-10.569,18.517-3.752.611-6.882-.488-8.977-3.06l-.536,9.417c-.129,3.805-1.254,5.172-3.832,5.6l-1,.166C176.01,114.966,173.357,114.269,173.588,110.4Zm20.624-23.357c-.466-2.841-2.412-4.518-5.092-4.079a6.228,6.228,0,0,0-4.448,3.484l-.166,2.942c-.177,3.859,1.881,6.223,5.36,5.654,3.563-.578,4.957-4.25,4.346-8Z" transform="translate(-108.965 -62.712)" fill="#ff991f"/>
    <path id="Trazado_30028-2" data-name="Trazado 30028" d="M239.334,73.718l-2.1-14.117c-.858-3.907,1.3-6.2,5.086-6.823,5.36-.879,8.039,1.608,6.673,6.137l-3.4,14.471c-.659,2.214-1.217,3.114-2.792,3.371C240.647,77.127,239.939,76.43,239.334,73.718ZM237.19,86.27a7.478,7.478,0,0,1,.884-5.161c.7-.981,1.436-1.426,4.068-1.854,2.942-.482,4.422.3,4.8,2.61a7.463,7.463,0,0,1-.879,5.167c-.7.981-1.442,1.42-4.014,1.844-2.953.488-4.486-.284-4.867-2.6Z" transform="translate(-138.421 -52.603)" fill="#ff991f"/>
  </g>
</svg>
