<svg id="restaurante" xmlns="http://www.w3.org/2000/svg" width="24" height="24" viewBox="0 0 24 24">
  <rect id="Rectángulo_367" data-name="Rectángulo 367" width="24" height="24" fill="none"/>
  <g id="Capa_2" data-name="Capa 2" transform="translate(3 2)">
    <g id="Capa_1" data-name="Capa 1">
      <path id="Trazado_29973" data-name="Trazado 29973" d="M15.53,0h-13A2.52,2.52,0,0,0,0,2.51V17.39A2.52,2.52,0,0,0,2.51,19.9h13A2.52,2.52,0,0,0,18,17.39V2.51A2.52,2.52,0,0,0,15.53,0Zm1.21,2.51v.93a2.14,2.14,0,1,1-4.28,0V1.3h3.07a1.21,1.21,0,0,1,1.21,1.21ZM6.88,1.3h4.28V3.44a2.14,2.14,0,0,1-4.28,0ZM1.3,2.51A1.21,1.21,0,0,1,2.51,1.3H5.58V3.44a2.14,2.14,0,0,1-4.28,0ZM12.09,18.6H6V13.67a3.07,3.07,0,1,1,6.14,0Zm3.44,0H13.39V13.67a4.37,4.37,0,0,0-8.74,0V18.6H2.51A1.21,1.21,0,0,1,1.3,17.39V6.11a3.4,3.4,0,0,0,4.93-.67,3.42,3.42,0,0,0,5.58,0,3.4,3.4,0,0,0,4.93.67V17.39a1.22,1.22,0,0,1-1.21,1.21Z" fill="#344563"/>
    </g>
  </g>
</svg>
