<svg id="soporte" xmlns="http://www.w3.org/2000/svg" width="24" height="24" viewBox="0 0 24 24">
  <rect id="Rectángulo_427" data-name="Rectángulo 427" width="24" height="24" fill="none"/>
  <g id="Grupo_45980" data-name="Grupo 45980" transform="translate(0.397 0.107)">
    <path id="Trazado_30011" data-name="Trazado 30011" d="M18.585,10.2H16.654a.6.6,0,0,0-.6.6v6.532l0,.01,0,.01v.911a.729.729,0,0,1-.729.728H13.289a1.482,1.482,0,1,0,0,1.2h2.037a1.93,1.93,0,0,0,1.926-1.934V17.93h1.331a2.351,2.351,0,0,0,2.349-2.348V12.548A2.352,2.352,0,0,0,18.585,10.2Zm1.151,5.381a1.153,1.153,0,0,1-1.152,1.151H17.253V11.4h1.332A1.165,1.165,0,0,1,19.736,12.6Z" transform="translate(-0.332 -0.309)"/>
    <path id="Trazado_30012" data-name="Trazado 30012" d="M8.925,4.679A6.62,6.62,0,0,1,17.68,7.993.6.6,0,1,0,18.771,7.5,7.814,7.814,0,0,0,8.433,3.587a7.854,7.854,0,0,0-4.571,6.6A2.34,2.34,0,0,0,2.6,12.259v3.033A2.352,2.352,0,0,0,4.952,17.64H6.884a.6.6,0,0,0,.6-.6V10.509a.6.6,0,0,0-.6-.6H5.089A6.652,6.652,0,0,1,8.925,4.679ZM6.286,16.443H4.952A1.165,1.165,0,0,1,3.8,15.237V12.259a1.152,1.152,0,0,1,1.151-1.151H6.286Z"/>
  </g>
</svg>
